<?xml version="1.0" standalone="no"?><svg xmlns:xlink="http://www.w3.org/1999/xlink" xmlns="http://www.w3.org/2000/svg" viewBox="0 0 1000 625.0055251549253" preserveAspectRatio="xMaxYMax slice"><g transform="scale(0.884024788055057)"><rect x="0" y="0" width="1131.2" height="707" fill="#ffffff"/><rect x="0" y="0" width="70.7" height="70.7" fill="#5572e9"/><path d="M 0 0 A 70.7 70.7 0 0 0 70.7 70.7 L 70.7 0" fill="#ffbccc"/><rect x="70.7" y="0" width="70.7" height="70.7" fill="#ff517b"/><rect x="70.7" y="0" width="70.7" height="70.7" fill="#f1f3fd"/><rect x="141.4" y="0" width="70.7" height="70.7" fill="#ffc0cf"/><path d="M 141.4 0 A 70.7 70.7 0 0 0 212.10000000000002 70.7 L 212.10000000000002 0" fill="#4463e7"/><rect x="212.1" y="0" width="70.7" height="70.7" fill="#eef1fd"/><path d="M 212.1 70.7 A 70.7 70.7 0 0 1  282.8 0 L 282.8 70.7" fill="#5d78ea"/><rect x="282.8" y="0" width="70.7" height="70.7" fill="#d3dbf9"/><polygon points="353.5,0 353.5,70.7 282.8,70.7" fill="#4b69e8"/><rect x="353.5" y="0" width="70.7" height="70.7" fill="#f5f6fe"/><path d="M 353.5 0 A 70.7 70.7 0 0 0 424.2 70.7 L 424.2 0" fill="#5571e9"/><rect x="424.2" y="0" width="70.7" height="70.7" fill="#f3f5fd"/><rect x="424.2" y="0" width="70.7" height="70.7" fill="#6d85ec"/><rect x="494.9" y="0" width="70.7" height="70.7" fill="#ffa4b9"/><rect x="494.9" y="0" width="70.7" height="70.7" fill="#3053e4"/><rect x="565.6" y="0" width="70.7" height="70.7" fill="#ffa0b6"/><polygon points="636.3000000000001,0 636.3000000000001,70.7 565.6,70.7" fill="#d3daf9"/><rect x="636.3" y="0" width="70.7" height="70.7" fill="#cbd4f8"/><rect x="636.3" y="0" width="70.7" height="70.7" fill="#ff7192"/><rect x="707" y="0" width="70.7" height="70.7" fill="#ff7797"/><rect x="707" y="0" width="70.7" height="70.7" fill="#96a8f1"/><rect x="777.7" y="0" width="70.7" height="70.7" fill="#ff577f"/><polygon points="848.4000000000001,0 848.4000000000001,70.7 777.7,70.7" fill="#ffe8ed"/><rect x="848.4" y="0" width="70.7" height="70.7" fill="#f7f8fe"/><path d="M 848.4 0 A 70.7 70.7 0 0 1  919.1 70.7 L 848.4 0 A 70.7 70.7 0 0 0 919.1 70.7" fill="#4867e7"/><rect x="919.1" y="0" width="70.7" height="70.7" fill="#889cef"/><path d="M 919.1 0 A 70.7 70.7 0 0 0 989.8000000000001 70.7 L 989.8000000000001 0" fill="#2c50e4"/><rect x="989.8" y="0" width="70.7" height="70.7" fill="#ffa5ba"/><path d="M 989.8 0 A 70.7 70.7 0 0 1  1060.5 70.7 L 989.8 0 A 70.7 70.7 0 0 0 1060.5 70.7" fill="#ff98b0"/><rect x="1060.5" y="0" width="70.7" height="70.7" fill="#ffedf1"/><polygon points="1131.2,0 1131.2,70.7 1060.5,70.7" fill="#ffbecd"/><rect x="0" y="70.7" width="70.7" height="70.7" fill="#7e94ee"/><path d="M 0 70.7 A 70.7 70.7 0 0 1  70.7 141.4 L 0 70.7 A 70.7 70.7 0 0 0 70.7 141.4" fill="#ffc1d0"/><rect x="70.7" y="70.7" width="70.7" height="70.7" fill="#8599ef"/><path d="M 70.7 141.4 A 70.7 70.7 0 0 0 141.4 70.7 L 70.7 70.7" fill="#ff3867"/><rect x="141.4" y="70.7" width="70.7" height="70.7" fill="#ff567e"/><rect x="141.4" y="70.7" width="70.7" height="70.7" fill="#ffb2c5"/><rect x="212.1" y="70.7" width="70.7" height="70.7" fill="#a9b7f4"/><rect x="212.1" y="70.7" width="70.7" height="70.7" fill="#607bea"/><rect x="282.8" y="70.7" width="70.7" height="70.7" fill="#c0cbf7"/><path d="M 282.8 141.4 A 70.7 70.7 0 0 1  353.5 70.7 L 282.8 141.4 A 70.7 70.7 0 0 0 353.5 70.7" fill="#a3b2f3"/><rect x="353.5" y="70.7" width="70.7" height="70.7" fill="#ff8ea9"/><path d="M 353.5 141.4 A 70.7 70.7 0 0 1  424.2 70.7 L 353.5 141.4 A 70.7 70.7 0 0 0 424.2 70.7" fill="#ffe3ea"/><rect x="424.2" y="70.7" width="70.7" height="70.7" fill="#fbfbfe"/><path d="M 424.2 70.7 A 70.7 70.7 0 0 0 494.9 141.4 L 494.9 70.7" fill="#fffdfd"/><rect x="494.9" y="70.7" width="70.7" height="70.7" fill="#ff9ab2"/><rect x="494.9" y="70.7" width="70.7" height="70.7" fill="#ffc5d3"/><rect x="565.6" y="70.7" width="70.7" height="70.7" fill="#385ae5"/><rect x="565.6" y="70.7" width="70.7" height="70.7" fill="#3a5be5"/><rect x="636.3" y="70.7" width="70.7" height="70.7" fill="#b6c2f6"/><rect x="636.3" y="70.7" width="70.7" height="70.7" fill="#ff8faa"/><rect x="707" y="70.7" width="70.7" height="70.7" fill="#ff97b0"/><path d="M 707 70.7 A 70.7 70.7 0 0 1 777.7 141.4 L 707 141.4" fill="#bbc7f6"/><rect x="777.7" y="70.7" width="70.7" height="70.7" fill="#ff9cb3"/><polygon points="777.7,70.7 848.4000000000001,141.4 777.7,141.4" fill="#ffa8bd"/><rect x="848.4" y="70.7" width="70.7" height="70.7" fill="#ff82a0"/><path d="M 848.4 141.4 A 70.7 70.7 0 0 1  919.1 70.7 L 848.4 141.4 A 70.7 70.7 0 0 0 919.1 70.7" fill="#ffebef"/><rect x="919.1" y="70.7" width="70.7" height="70.7" fill="#fff0f3"/><polygon points="919.1,70.7 989.8000000000001,70.7 919.1,141.4" fill="#c0caf7"/><rect x="989.8" y="70.7" width="70.7" height="70.7" fill="#ff3766"/><rect x="989.8" y="70.7" width="70.7" height="70.7" fill="#ffbaca"/><rect x="1060.5" y="70.7" width="70.7" height="70.7" fill="#2b4fe3"/><rect x="1060.5" y="70.7" width="70.7" height="70.7" fill="#ffa1b7"/><rect x="0" y="141.4" width="70.7" height="70.7" fill="#ffedf1"/><rect x="0" y="141.4" width="70.7" height="70.7" fill="#ff88a5"/><rect x="70.7" y="141.4" width="70.7" height="70.7" fill="#d4dbf9"/><rect x="70.7" y="141.4" width="70.7" height="70.7" fill="#9cadf2"/><rect x="141.4" y="141.4" width="70.7" height="70.7" fill="#f3f5fd"/><path d="M 141.4 212.10000000000002 A 70.7 70.7 0 0 1  212.10000000000002 141.4 L 212.10000000000002 212.10000000000002" fill="#fff5f7"/><rect x="212.1" y="141.4" width="70.7" height="70.7" fill="#d6ddfa"/><polygon points="282.8,141.4 282.8,212.10000000000002 212.1,212.10000000000002" fill="#a7b6f4"/><rect x="282.8" y="141.4" width="70.7" height="70.7" fill="#fcfcff"/><rect x="282.8" y="141.4" width="70.7" height="70.7" fill="#ffc1d0"/><rect x="353.5" y="141.4" width="70.7" height="70.7" fill="#ff7c9b"/><rect x="353.5" y="141.4" width="70.7" height="70.7" fill="#98aaf2"/><rect x="424.2" y="141.4" width="70.7" height="70.7" fill="#fdfdff"/><rect x="424.2" y="141.4" width="70.7" height="70.7" fill="#526fe9"/><rect x="494.9" y="141.4" width="70.7" height="70.7" fill="#738bed"/><path d="M 494.9 212.10000000000002 A 70.7 70.7 0 0 1  565.6 141.4 L 565.6 212.10000000000002" fill="#ffe3ea"/><rect x="565.6" y="141.4" width="70.7" height="70.7" fill="#ff6086"/><polygon points="565.6,141.4 636.3000000000001,212.10000000000002 565.6,212.10000000000002" fill="#e6eafc"/><rect x="636.3" y="141.4" width="70.7" height="70.7" fill="#ff92ac"/><rect x="636.3" y="141.4" width="70.7" height="70.7" fill="#ff698c"/><rect x="707" y="141.4" width="70.7" height="70.7" fill="#7990ee"/><rect x="707" y="141.4" width="70.7" height="70.7" fill="#ffcdd9"/><rect x="777.7" y="141.4" width="70.7" height="70.7" fill="#b1bef5"/><polygon points="777.7,141.4 848.4000000000001,141.4 777.7,212.10000000000002" fill="#dde3fb"/><rect x="848.4" y="141.4" width="70.7" height="70.7" fill="#ffaabf"/><path d="M 848.4 141.4 A 70.7 70.7 0 0 1 919.1 212.10000000000002 L 848.4 212.10000000000002" fill="#ff406d"/><rect x="919.1" y="141.4" width="70.7" height="70.7" fill="#8499ef"/><polygon points="919.1,141.4 989.8000000000001,141.4 989.8000000000001,212.10000000000002" fill="#fffdfe"/><rect x="989.8" y="141.4" width="70.7" height="70.7" fill="#ff5980"/><rect x="989.8" y="141.4" width="70.7" height="70.7" fill="#1a41e1"/><rect x="1060.5" y="141.4" width="70.7" height="70.7" fill="#fff9fa"/><rect x="1060.5" y="141.4" width="70.7" height="70.7" fill="#2045e2"/><rect x="0" y="212.1" width="70.7" height="70.7" fill="#607aea"/><path d="M 0 212.1 A 70.7 70.7 0 0 0 70.7 282.8 L 70.7 212.1" fill="#b9c5f6"/><rect x="70.7" y="212.1" width="70.7" height="70.7" fill="#4f6de8"/><polygon points="70.7,212.1 141.4,282.8 70.7,282.8" fill="#ffcfda"/><rect x="141.4" y="212.1" width="70.7" height="70.7" fill="#ffa9be"/><rect x="141.4" y="212.1" width="70.7" height="70.7" fill="#f8f9fe"/><rect x="212.1" y="212.1" width="70.7" height="70.7" fill="#9fb0f3"/><polygon points="212.1,212.1 282.8,282.8 212.1,282.8" fill="#8a9ef0"/><rect x="282.8" y="212.1" width="70.7" height="70.7" fill="#ff7193"/><path d="M 282.8 212.1 A 70.7 70.7 0 0 0 353.5 282.8 L 353.5 212.1" fill="#ff7797"/><rect x="353.5" y="212.1" width="70.7" height="70.7" fill="#ff9bb3"/><polygon points="353.5,212.1 424.2,212.1 353.5,282.8" fill="#ffdce4"/><rect x="424.2" y="212.1" width="70.7" height="70.7" fill="#8499ef"/><rect x="424.2" y="212.1" width="70.7" height="70.7" fill="#395be5"/><rect x="494.9" y="212.1" width="70.7" height="70.7" fill="#acbaf4"/><path d="M 494.9 212.1 A 70.7 70.7 0 0 1  565.6 282.8 L 494.9 212.1 A 70.7 70.7 0 0 0 565.6 282.8" fill="#3154e4"/><rect x="565.6" y="212.1" width="70.7" height="70.7" fill="#ffeff3"/><path d="M 565.6 282.8 A 70.7 70.7 0 0 0 636.3000000000001 212.1 L 565.6 212.1" fill="#ff7797"/><rect x="636.3" y="212.1" width="70.7" height="70.7" fill="#b1bef5"/><polygon points="636.3,212.1 707,212.1 707,282.8" fill="#6b84ec"/><rect x="707" y="212.1" width="70.7" height="70.7" fill="#5672e9"/><polygon points="707,212.1 777.7,212.1 777.7,282.8" fill="#647eeb"/><rect x="777.7" y="212.1" width="70.7" height="70.7" fill="#ff3767"/><rect x="777.7" y="212.1" width="70.7" height="70.7" fill="#7a90ee"/><rect x="848.4" y="212.1" width="70.7" height="70.7" fill="#e9ecfc"/><polygon points="848.4,212.1 919.1,212.1 848.4,282.8" fill="#c5cff7"/><rect x="919.1" y="212.1" width="70.7" height="70.7" fill="#748ced"/><rect x="919.1" y="212.1" width="70.7" height="70.7" fill="#d8dffa"/><rect x="989.8" y="212.1" width="70.7" height="70.7" fill="#ffbecd"/><path d="M 989.8 282.8 A 70.7 70.7 0 0 1  1060.5 212.1 L 1060.5 282.8" fill="#e8ecfc"/><rect x="1060.5" y="212.1" width="70.7" height="70.7" fill="#a6b5f3"/><polygon points="1060.5,212.1 1131.2,212.1 1060.5,282.8" fill="#e3e8fb"/><rect x="0" y="282.8" width="70.7" height="70.7" fill="#ffd6e0"/><polygon points="70.7,282.8 70.7,353.5 0,353.5" fill="#fff4f7"/><rect x="70.7" y="282.8" width="70.7" height="70.7" fill="#ffa7bc"/><polygon points="70.7,282.8 141.4,282.8 141.4,353.5" fill="#d9dffa"/><rect x="141.4" y="282.8" width="70.7" height="70.7" fill="#fff5f7"/><path d="M 141.4 353.5 A 70.7 70.7 0 0 0 212.10000000000002 282.8 L 141.4 282.8" fill="#ffc1d0"/><rect x="212.1" y="282.8" width="70.7" height="70.7" fill="#4c6ae8"/><rect x="212.1" y="282.8" width="70.7" height="70.7" fill="#264ae3"/><rect x="282.8" y="282.8" width="70.7" height="70.7" fill="#d7defa"/><rect x="282.8" y="282.8" width="70.7" height="70.7" fill="#ff7092"/><rect x="353.5" y="282.8" width="70.7" height="70.7" fill="#bfcaf7"/><path d="M 353.5 353.5 A 70.7 70.7 0 0 1  424.2 282.8 L 424.2 353.5" fill="#ffe8ed"/><rect x="424.2" y="282.8" width="70.7" height="70.7" fill="#fff1f5"/><path d="M 424.2 353.5 A 70.7 70.7 0 0 0 494.9 282.8 L 424.2 282.8" fill="#fff0f4"/><rect x="494.9" y="282.8" width="70.7" height="70.7" fill="#4665e7"/><rect x="494.9" y="282.8" width="70.7" height="70.7" fill="#869bef"/><rect x="565.6" y="282.8" width="70.7" height="70.7" fill="#879bef"/><path d="M 565.6 353.5 A 70.7 70.7 0 0 1  636.3000000000001 282.8 L 636.3000000000001 353.5" fill="#5672e9"/><rect x="636.3" y="282.8" width="70.7" height="70.7" fill="#798fee"/><rect x="636.3" y="282.8" width="70.7" height="70.7" fill="#5471e9"/><rect x="707" y="282.8" width="70.7" height="70.7" fill="#e5eafc"/><rect x="707" y="282.8" width="70.7" height="70.7" fill="#ff4470"/><rect x="777.7" y="282.8" width="70.7" height="70.7" fill="#5d78ea"/><polygon points="777.7,282.8 848.4000000000001,353.5 777.7,353.5" fill="#fff0f3"/><rect x="848.4" y="282.8" width="70.7" height="70.7" fill="#ff5880"/><rect x="848.4" y="282.8" width="70.7" height="70.7" fill="#ff93ad"/><rect x="919.1" y="282.8" width="70.7" height="70.7" fill="#1f45e2"/><rect x="919.1" y="282.8" width="70.7" height="70.7" fill="#ffbdcd"/><rect x="989.8" y="282.8" width="70.7" height="70.7" fill="#8297ef"/><path d="M 989.8 353.5 A 70.7 70.7 0 0 1  1060.5 282.8 L 989.8 353.5 A 70.7 70.7 0 0 0 1060.5 282.8" fill="#ffd5df"/><rect x="1060.5" y="282.8" width="70.7" height="70.7" fill="#9bacf2"/><path d="M 1060.5 353.5 A 70.7 70.7 0 0 1  1131.2 282.8 L 1131.2 353.5" fill="#8da1f0"/><rect x="0" y="353.5" width="70.7" height="70.7" fill="#4d6be8"/><rect x="0" y="353.5" width="70.7" height="70.7" fill="#ff83a1"/><rect x="70.7" y="353.5" width="70.7" height="70.7" fill="#ffb8c9"/><polygon points="70.7,353.5 141.4,353.5 141.4,424.2" fill="#ffe0e7"/><rect x="141.4" y="353.5" width="70.7" height="70.7" fill="#ff5981"/><path d="M 141.4 424.2 A 70.7 70.7 0 0 1  212.10000000000002 353.5 L 141.4 424.2 A 70.7 70.7 0 0 0 212.10000000000002 353.5" fill="#ff91ab"/><rect x="212.1" y="353.5" width="70.7" height="70.7" fill="#ff668a"/><rect x="212.1" y="353.5" width="70.7" height="70.7" fill="#3456e5"/><rect x="282.8" y="353.5" width="70.7" height="70.7" fill="#ff8ea9"/><polygon points="282.8,353.5 353.5,353.5 282.8,424.2" fill="#ff7f9e"/><rect x="353.5" y="353.5" width="70.7" height="70.7" fill="#ffb8c9"/><polygon points="353.5,353.5 424.2,353.5 424.2,424.2" fill="#ff3c6b"/><rect x="424.2" y="353.5" width="70.7" height="70.7" fill="#dbe1fa"/><rect x="424.2" y="353.5" width="70.7" height="70.7" fill="#264be3"/><rect x="494.9" y="353.5" width="70.7" height="70.7" fill="#8ea1f0"/><polygon points="494.9,353.5 565.6,424.2 494.9,424.2" fill="#ffd5df"/><rect x="565.6" y="353.5" width="70.7" height="70.7" fill="#ff8da8"/><polygon points="565.6,353.5 636.3000000000001,353.5 565.6,424.2" fill="#5471e9"/><rect x="636.3" y="353.5" width="70.7" height="70.7" fill="#5471e9"/><rect x="636.3" y="353.5" width="70.7" height="70.7" fill="#ffc1d0"/><rect x="707" y="353.5" width="70.7" height="70.7" fill="#ff3666"/><rect x="707" y="353.5" width="70.7" height="70.7" fill="#a7b5f4"/><rect x="777.7" y="353.5" width="70.7" height="70.7" fill="#adbbf4"/><polygon points="777.7,353.5 848.4000000000001,353.5 848.4000000000001,424.2" fill="#ff688c"/><rect x="848.4" y="353.5" width="70.7" height="70.7" fill="#4b69e8"/><polygon points="919.1,353.5 919.1,424.2 848.4,424.2" fill="#637deb"/><rect x="919.1" y="353.5" width="70.7" height="70.7" fill="#8fa2f0"/><path d="M 919.1 424.2 A 70.7 70.7 0 0 0 989.8000000000001 353.5 L 919.1 353.5" fill="#ffe7ed"/><rect x="989.8" y="353.5" width="70.7" height="70.7" fill="#ff7394"/><polygon points="1060.5,353.5 1060.5,424.2 989.8,424.2" fill="#2449e3"/><rect x="1060.5" y="353.5" width="70.7" height="70.7" fill="#ffcbd7"/><rect x="1060.5" y="353.5" width="70.7" height="70.7" fill="#7d93ee"/><rect x="0" y="424.2" width="70.7" height="70.7" fill="#5773e9"/><rect x="0" y="424.2" width="70.7" height="70.7" fill="#4766e7"/><rect x="70.7" y="424.2" width="70.7" height="70.7" fill="#afbcf5"/><rect x="70.7" y="424.2" width="70.7" height="70.7" fill="#ff9bb3"/><rect x="141.4" y="424.2" width="70.7" height="70.7" fill="#d4dbf9"/><path d="M 141.4 494.9 A 70.7 70.7 0 0 1  212.10000000000002 424.2 L 212.10000000000002 494.9" fill="#ff436f"/><rect x="212.1" y="424.2" width="70.7" height="70.7" fill="#fffafb"/><path d="M 212.1 424.2 A 70.7 70.7 0 0 1  282.8 494.9 L 212.1 424.2 A 70.7 70.7 0 0 0 282.8 494.9" fill="#acbaf4"/><rect x="282.8" y="424.2" width="70.7" height="70.7" fill="#ff4d77"/><path d="M 282.8 424.2 A 70.7 70.7 0 0 0 353.5 494.9 L 353.5 424.2" fill="#ffcad6"/><rect x="353.5" y="424.2" width="70.7" height="70.7" fill="#ff4974"/><rect x="353.5" y="424.2" width="70.7" height="70.7" fill="#ff8ea9"/><rect x="424.2" y="424.2" width="70.7" height="70.7" fill="#ff3c6a"/><path d="M 424.2 494.9 A 70.7 70.7 0 0 0 494.9 424.2 L 424.2 424.2" fill="#ffe6ec"/><rect x="494.9" y="424.2" width="70.7" height="70.7" fill="#ff90ab"/><path d="M 494.9 494.9 A 70.7 70.7 0 0 1  565.6 424.2 L 565.6 494.9" fill="#ff6288"/><rect x="565.6" y="424.2" width="70.7" height="70.7" fill="#fffdfd"/><path d="M 565.6 424.2 A 70.7 70.7 0 0 0 636.3000000000001 494.9 L 636.3000000000001 424.2" fill="#ffdae3"/><rect x="636.3" y="424.2" width="70.7" height="70.7" fill="#ff7596"/><rect x="636.3" y="424.2" width="70.7" height="70.7" fill="#b6c2f5"/><rect x="707" y="424.2" width="70.7" height="70.7" fill="#ffdfe7"/><path d="M 707 424.2 A 70.7 70.7 0 0 0 777.7 494.9 L 777.7 424.2" fill="#ff416e"/><rect x="777.7" y="424.2" width="70.7" height="70.7" fill="#ff91ab"/><path d="M 777.7 494.9 A 70.7 70.7 0 0 0 848.4000000000001 424.2 L 777.7 424.2" fill="#c1cbf7"/><rect x="848.4" y="424.2" width="70.7" height="70.7" fill="#eef1fd"/><path d="M 848.4 494.9 A 70.7 70.7 0 0 1  919.1 424.2 L 848.4 494.9 A 70.7 70.7 0 0 0 919.1 424.2" fill="#ff92ac"/><rect x="919.1" y="424.2" width="70.7" height="70.7" fill="#ffb3c5"/><rect x="919.1" y="424.2" width="70.7" height="70.7" fill="#d2daf9"/><rect x="989.8" y="424.2" width="70.7" height="70.7" fill="#3456e5"/><path d="M 989.8 494.9 A 70.7 70.7 0 0 0 1060.5 424.2 L 989.8 424.2" fill="#ffc2d1"/><rect x="1060.5" y="424.2" width="70.7" height="70.7" fill="#ff8faa"/><rect x="1060.5" y="424.2" width="70.7" height="70.7" fill="#ffeef2"/><rect x="0" y="494.9" width="70.7" height="70.7" fill="#ff87a3"/><polygon points="0,494.9 70.7,565.6 0,565.6" fill="#ffd4de"/><rect x="70.7" y="494.9" width="70.7" height="70.7" fill="#8398ef"/><path d="M 70.7 565.6 A 70.7 70.7 0 0 1  141.4 494.9 L 70.7 565.6 A 70.7 70.7 0 0 0 141.4 494.9" fill="#ffa2b8"/><rect x="141.4" y="494.9" width="70.7" height="70.7" fill="#ff7495"/><path d="M 141.4 494.9 A 70.7 70.7 0 0 1 212.10000000000002 565.6 L 141.4 565.6" fill="#ffecf0"/><rect x="212.1" y="494.9" width="70.7" height="70.7" fill="#6e86ec"/><path d="M 212.1 565.6 A 70.7 70.7 0 0 0 282.8 494.9 L 212.1 494.9" fill="#ff3766"/><rect x="282.8" y="494.9" width="70.7" height="70.7" fill="#1b41e1"/><polygon points="282.8,494.9 353.5,494.9 282.8,565.6" fill="#7990ee"/><rect x="353.5" y="494.9" width="70.7" height="70.7" fill="#a3b3f3"/><rect x="353.5" y="494.9" width="70.7" height="70.7" fill="#d4dbf9"/><rect x="424.2" y="494.9" width="70.7" height="70.7" fill="#607bea"/><path d="M 424.2 565.6 A 70.7 70.7 0 0 0 494.9 494.9 L 424.2 494.9" fill="#ff7797"/><rect x="494.9" y="494.9" width="70.7" height="70.7" fill="#f6f8fe"/><path d="M 494.9 565.6 A 70.7 70.7 0 0 1  565.6 494.9 L 565.6 565.6" fill="#ff7595"/><rect x="565.6" y="494.9" width="70.7" height="70.7" fill="#ffb4c6"/><rect x="565.6" y="494.9" width="70.7" height="70.7" fill="#b6c2f5"/><rect x="636.3" y="494.9" width="70.7" height="70.7" fill="#637deb"/><rect x="636.3" y="494.9" width="70.7" height="70.7" fill="#d1d9f9"/><rect x="707" y="494.9" width="70.7" height="70.7" fill="#fffdfd"/><polygon points="707,494.9 777.7,494.9 777.7,565.6" fill="#526fe8"/><rect x="777.7" y="494.9" width="70.7" height="70.7" fill="#ff6c8f"/><polygon points="777.7,494.9 848.4000000000001,494.9 848.4000000000001,565.6" fill="#d2d9f9"/><rect x="848.4" y="494.9" width="70.7" height="70.7" fill="#ffa1b8"/><rect x="848.4" y="494.9" width="70.7" height="70.7" fill="#ff8ba7"/><rect x="919.1" y="494.9" width="70.7" height="70.7" fill="#ff3565"/><rect x="919.1" y="494.9" width="70.7" height="70.7" fill="#97a9f2"/><rect x="989.8" y="494.9" width="70.7" height="70.7" fill="#6f87ec"/><polygon points="989.8,494.9 1060.5,494.9 989.8,565.6" fill="#ffe9ee"/><rect x="1060.5" y="494.9" width="70.7" height="70.7" fill="#ffd8e1"/><path d="M 1060.5 565.6 A 70.7 70.7 0 0 0 1131.2 494.9 L 1060.5 494.9" fill="#dbe1fa"/><rect x="0" y="565.6" width="70.7" height="70.7" fill="#2046e2"/><polygon points="0,565.6 70.7,565.6 0,636.3000000000001" fill="#4d6be8"/><rect x="70.7" y="565.6" width="70.7" height="70.7" fill="#ff436f"/><rect x="70.7" y="565.6" width="70.7" height="70.7" fill="#ced7f9"/><rect x="141.4" y="565.6" width="70.7" height="70.7" fill="#ffc8d5"/><rect x="141.4" y="565.6" width="70.7" height="70.7" fill="#fff4f7"/><rect x="212.1" y="565.6" width="70.7" height="70.7" fill="#ff698d"/><polygon points="282.8,565.6 282.8,636.3000000000001 212.1,636.3000000000001" fill="#3e5ee6"/><rect x="282.8" y="565.6" width="70.7" height="70.7" fill="#ff96af"/><rect x="282.8" y="565.6" width="70.7" height="70.7" fill="#607bea"/><rect x="353.5" y="565.6" width="70.7" height="70.7" fill="#ff7798"/><rect x="353.5" y="565.6" width="70.7" height="70.7" fill="#516ee8"/><rect x="424.2" y="565.6" width="70.7" height="70.7" fill="#4d6be8"/><rect x="424.2" y="565.6" width="70.7" height="70.7" fill="#ff90ab"/><rect x="494.9" y="565.6" width="70.7" height="70.7" fill="#dde3fb"/><rect x="494.9" y="565.6" width="70.7" height="70.7" fill="#ffe4ea"/><rect x="565.6" y="565.6" width="70.7" height="70.7" fill="#ff96af"/><rect x="565.6" y="565.6" width="70.7" height="70.7" fill="#3759e5"/><rect x="636.3" y="565.6" width="70.7" height="70.7" fill="#bdc8f6"/><path d="M 636.3 636.3000000000001 A 70.7 70.7 0 0 1  707 565.6 L 707 636.3000000000001" fill="#4d6be8"/><rect x="707" y="565.6" width="70.7" height="70.7" fill="#ff4874"/><path d="M 707 636.3000000000001 A 70.7 70.7 0 0 1  777.7 565.6 L 707 636.3000000000001 A 70.7 70.7 0 0 0 777.7 565.6" fill="#cbd4f8"/><rect x="777.7" y="565.6" width="70.7" height="70.7" fill="#ff95ae"/><polygon points="777.7,565.6 848.4000000000001,636.3000000000001 777.7,636.3000000000001" fill="#ff4e78"/><rect x="848.4" y="565.6" width="70.7" height="70.7" fill="#ff6a8d"/><path d="M 848.4 636.3000000000001 A 70.7 70.7 0 0 1  919.1 565.6 L 848.4 636.3000000000001 A 70.7 70.7 0 0 0 919.1 565.6" fill="#ccd4f8"/><rect x="919.1" y="565.6" width="70.7" height="70.7" fill="#ffebef"/><polygon points="919.1,565.6 989.8000000000001,565.6 919.1,636.3000000000001" fill="#ff9ab2"/><rect x="989.8" y="565.6" width="70.7" height="70.7" fill="#4665e7"/><polygon points="989.8,565.6 1060.5,565.6 989.8,636.3000000000001" fill="#fcfcff"/><rect x="1060.5" y="565.6" width="70.7" height="70.7" fill="#ffacc0"/><path d="M 1060.5 565.6 A 70.7 70.7 0 0 1  1131.2 636.3000000000001 L 1060.5 565.6 A 70.7 70.7 0 0 0 1131.2 636.3000000000001" fill="#eceffc"/><rect x="0" y="636.3" width="70.7" height="70.7" fill="#dae1fa"/><polygon points="0,636.3 70.7,636.3 70.7,707" fill="#ff3666"/><rect x="70.7" y="636.3" width="70.7" height="70.7" fill="#8297ef"/><rect x="70.7" y="636.3" width="70.7" height="70.7" fill="#4564e7"/><rect x="141.4" y="636.3" width="70.7" height="70.7" fill="#526fe9"/><path d="M 141.4 707 A 70.7 70.7 0 0 1  212.10000000000002 636.3 L 212.10000000000002 707" fill="#fdfdff"/><rect x="212.1" y="636.3" width="70.7" height="70.7" fill="#a1b1f3"/><path d="M 212.1 636.3 A 70.7 70.7 0 0 1 282.8 707 L 212.1 707" fill="#5975e9"/><rect x="282.8" y="636.3" width="70.7" height="70.7" fill="#f7f9fe"/><rect x="282.8" y="636.3" width="70.7" height="70.7" fill="#ffdde5"/><rect x="353.5" y="636.3" width="70.7" height="70.7" fill="#ff688c"/><path d="M 353.5 707 A 70.7 70.7 0 0 0 424.2 636.3 L 353.5 636.3" fill="#768ded"/><rect x="424.2" y="636.3" width="70.7" height="70.7" fill="#ff9fb6"/><path d="M 424.2 707 A 70.7 70.7 0 0 1  494.9 636.3 L 424.2 707 A 70.7 70.7 0 0 0 494.9 636.3" fill="#ff4c77"/><rect x="494.9" y="636.3" width="70.7" height="70.7" fill="#ffb2c5"/><polygon points="494.9,636.3 565.6,636.3 565.6,707" fill="#ff7394"/><rect x="565.6" y="636.3" width="70.7" height="70.7" fill="#ff3c6a"/><path d="M 565.6 707 A 70.7 70.7 0 0 0 636.3000000000001 636.3 L 565.6 636.3" fill="#ffcad7"/><rect x="636.3" y="636.3" width="70.7" height="70.7" fill="#ffafc2"/><rect x="636.3" y="636.3" width="70.7" height="70.7" fill="#b4c1f5"/><rect x="707" y="636.3" width="70.7" height="70.7" fill="#ff6c8f"/><path d="M 707 636.3 A 70.7 70.7 0 0 1 777.7 707 L 707 707" fill="#ffa0b6"/><rect x="777.7" y="636.3" width="70.7" height="70.7" fill="#5774e9"/><rect x="777.7" y="636.3" width="70.7" height="70.7" fill="#ff5880"/><rect x="848.4" y="636.3" width="70.7" height="70.7" fill="#fafbfe"/><polygon points="848.4,636.3 919.1,636.3 919.1,707" fill="#ff4c76"/><rect x="919.1" y="636.3" width="70.7" height="70.7" fill="#ff7495"/><polygon points="919.1,636.3 989.8000000000001,636.3 989.8000000000001,707" fill="#ff4d77"/><rect x="989.8" y="636.3" width="70.7" height="70.7" fill="#2c50e4"/><path d="M 989.8 707 A 70.7 70.7 0 0 1  1060.5 636.3 L 1060.5 707" fill="#ff7293"/><rect x="1060.5" y="636.3" width="70.7" height="70.7" fill="#ffc8d5"/><polygon points="1060.5,636.3 1131.2,636.3 1060.5,707" fill="#6b84ec"/></g></svg>