<svg width="250" height="250" viewBox="0 0 250 250" fill="none" xmlns="http://www.w3.org/2000/svg">
<circle cx="125" cy="125" r="125" fill="#001644"/>
<path d="M53.52 157.96C49.552 157.96 46.064 157 43.056 155.08C40.112 153.096 37.808 150.248 36.144 146.536C34.544 142.824 33.744 138.376 33.744 133.192C33.744 127.816 34.576 123.272 36.24 119.56C37.968 115.848 40.336 113 43.344 111.016C46.416 109.032 49.936 108.04 53.904 108.04C58.256 108.04 61.744 109.384 64.368 112.072C67.056 114.696 68.784 118.056 69.552 122.152L68.016 124.168V88.648H84.336V157H69.744L68.688 140.68L70.608 142.12C70.224 145.32 69.232 148.104 67.632 150.472C66.096 152.84 64.112 154.696 61.68 156.04C59.312 157.32 56.592 157.96 53.52 157.96ZM59.184 145.96C61.04 145.96 62.608 145.48 63.888 144.52C65.232 143.496 66.256 141.992 66.96 140.008C67.664 138.024 68.016 135.592 68.016 132.712C68.016 130.024 67.664 127.752 66.96 125.896C66.32 123.976 65.328 122.536 63.984 121.576C62.704 120.552 61.136 120.04 59.28 120.04C56.464 120.04 54.224 121.096 52.56 123.208C50.96 125.256 50.16 128.52 50.16 133C50.16 137.48 50.96 140.776 52.56 142.888C54.16 144.936 56.368 145.96 59.184 145.96ZM119.468 157.96C114.156 157.96 109.548 156.968 105.644 154.984C101.804 153 98.8275 150.152 96.7155 146.44C94.6035 142.728 93.5475 138.248 93.5475 133C93.5475 127.752 94.6035 123.272 96.7155 119.56C98.8275 115.848 101.772 113 105.548 111.016C109.388 109.032 113.772 108.04 118.7 108.04C123.756 108.04 128.044 109.032 131.564 111.016C135.148 112.936 137.868 115.624 139.724 119.08C141.58 122.472 142.508 126.376 142.508 130.792C142.508 131.944 142.476 133.096 142.412 134.248C142.348 135.4 142.252 136.36 142.124 137.128H104.108V128.392H134.924L127.148 131.368C127.148 127.528 126.444 124.584 125.036 122.536C123.692 120.488 121.58 119.464 118.7 119.464C116.652 119.464 114.892 119.944 113.42 120.904C112.012 121.864 110.924 123.368 110.156 125.416C109.452 127.464 109.1 130.088 109.1 133.288C109.1 136.424 109.516 138.984 110.348 140.968C111.18 142.888 112.364 144.296 113.9 145.192C115.436 146.024 117.292 146.44 119.468 146.44C121.9 146.44 123.82 145.96 125.228 145C126.7 144.04 127.788 142.696 128.492 140.968L141.548 145.288C140.652 148.04 139.084 150.376 136.844 152.296C134.668 154.152 132.044 155.56 128.972 156.52C125.964 157.48 122.796 157.96 119.468 157.96ZM181.337 109H198.233L180.953 157H161.465L144.185 109H161.369L171.257 145.576L181.337 109ZM205.451 140.488C208.459 140.488 210.795 141.256 212.459 142.792C214.187 144.328 215.051 146.472 215.051 149.224C215.051 151.912 214.187 154.024 212.459 155.56C210.795 157.096 208.459 157.864 205.451 157.864C202.507 157.864 200.171 157.096 198.443 155.56C196.715 154.024 195.851 151.912 195.851 149.224C195.851 146.472 196.715 144.328 198.443 142.792C200.171 141.256 202.507 140.488 205.451 140.488Z" fill="white"/>
</svg>
